<svg viewBox="0 0 319 49.778" fill="none" xmlns="http://www.w3.org/2000/svg" aria-hidden="true">
<g id="Layer_1" clip-path="url(#clip0_0_103)">
<g id="Group">
<path id="Vector" d="M38.1708 6.96621C38.2248 6.78943 38.3071 6.71769 38.4253 6.65876L38.9911 6.36413L39.0502 6.33082C39.5619 6.01569 39.9348 5.72361 40.1894 5.43923C40.5365 5.04723 40.7139 4.5297 40.7139 3.89944C40.7139 2.93354 40.2871 2.17005 39.5105 1.74988C38.9011 1.42194 38.1553 1.25284 37.2888 1.25284H27.6818C26.8178 1.25284 26.0695 1.41937 25.4549 1.74732C24.668 2.16749 24.2334 2.93098 24.2334 3.902C24.2334 4.53482 24.4109 5.05236 24.758 5.44179C25.0126 5.72874 25.3855 6.02081 25.8998 6.33594L26.5683 6.68438C26.7201 6.75356 26.7663 6.8253 26.7946 6.93546C26.8538 7.1558 26.9232 7.62209 26.9232 8.59567V16.1921H13.7959V8.59567C13.7959 7.58622 13.8859 7.14299 13.9399 6.96877C13.9939 6.79455 14.0762 6.72281 14.1945 6.66389L14.7602 6.36925L14.8193 6.33594C15.3336 6.02081 15.7065 5.72874 15.9585 5.44435C16.3082 5.05236 16.4831 4.53482 16.4831 3.90456C16.4831 2.93867 16.0562 2.17518 15.2796 1.755C14.6702 1.4245 13.9245 1.25797 13.0579 1.25797H3.4509C2.58689 1.25797 1.83859 1.4245 1.22144 1.75244C0.434577 2.16493 0 2.93098 0 3.89944C0 4.5297 0.177431 5.04723 0.522007 5.43667C0.776581 5.72361 1.14944 6.01569 1.66374 6.33082L2.33231 6.67926C2.4866 6.74843 2.53032 6.82273 2.5586 6.93034C2.61775 7.15068 2.68718 7.61697 2.68718 8.59055V32.6379C2.68718 33.5884 2.61775 34.0419 2.56118 34.2546C2.53289 34.3571 2.47889 34.4672 2.2886 34.5697L1.72288 34.8643L1.66631 34.8977C1.15459 35.2102 0.781724 35.5023 0.527149 35.7892C0.180002 36.1812 0.00257146 36.6885 0.00257146 37.306C0.00257146 38.1079 0.339433 39.9782 3.45347 39.9782H13.0605C16.1513 39.9782 16.4856 38.1105 16.4856 37.306C16.4856 36.6911 16.3082 36.1812 15.9611 35.7892C15.7065 35.5023 15.3311 35.2102 14.8193 34.8977L14.2125 34.5774C14.071 34.5005 13.9913 34.4032 13.9425 34.2366C13.8885 34.0624 13.7985 33.6243 13.7985 32.6354V21.8696H26.9258V32.6354C26.9258 33.5859 26.8563 34.0394 26.7998 34.2546C26.7715 34.3571 26.7175 34.4647 26.5298 34.5671L25.964 34.8618L25.9075 34.8925C25.3957 35.2051 25.0229 35.4972 24.7657 35.7841C24.416 36.1761 24.2412 36.686 24.2412 37.3009C24.2412 38.1028 24.578 39.9731 27.6895 39.9731H37.2965C40.3874 39.9731 40.7217 38.1053 40.7217 37.3009C40.7217 36.686 40.5468 36.1761 40.1971 35.7841C39.9425 35.4972 39.5696 35.2051 39.0579 34.8925L38.4485 34.5723C38.3071 34.4954 38.2273 34.3955 38.1785 34.2341C38.1245 34.0599 38.0345 33.6218 38.0345 32.6328V8.59055C38.0345 7.5811 38.1245 7.13787 38.1785 6.96621H38.1708Z" fill="var(--fill-0, #FF4438)"/>
<path id="Vector_2" d="M64.4717 15.1673C62.1856 14.0503 59.7427 13.4841 57.2047 13.4841C55.1218 13.4841 53.1238 13.7941 51.2672 14.4038C49.3875 15.0213 47.6543 16.0051 46.0986 17.3425C44.7126 18.5979 43.5914 20.1044 42.7608 21.821C41.92 23.558 41.4931 25.3694 41.4931 27.2089C41.4931 28.5258 41.6808 29.812 42.0511 31.0341C42.424 32.2587 42.9871 33.4347 43.7303 34.5236C44.4683 35.6099 45.3529 36.5784 46.3583 37.4033C49.0712 39.6169 52.5709 40.7391 56.7599 40.7391C59.3596 40.7391 61.8693 40.1703 64.2171 39.0482C66.588 37.9157 68.5243 36.2812 69.9694 34.1854C71.4326 32.0691 72.1732 29.6301 72.1732 26.9399C72.1732 24.2498 71.4583 22.0131 70.0466 19.943C68.6503 17.8985 66.7731 16.2895 64.4717 15.1648V15.1673ZM56.8087 35.3229C55.0241 35.3229 53.8927 34.6184 53.2472 33.1068C52.5067 31.3697 52.1312 29.2765 52.1312 26.881C52.1312 24.7161 52.5452 22.7869 53.3604 21.1471C54.0881 19.6842 55.2144 19.0027 56.909 19.0027C58.6036 19.0027 59.663 19.656 60.3573 21.0575C61.1416 22.6434 61.5376 24.5214 61.5376 26.635C61.5376 35.323 57.9787 35.3229 56.8113 35.3229H56.8087Z" fill="var(--fill-0, #FF4438)"/>
<path id="Vector_3" d="M95.7818 15.1673C93.4957 14.0503 91.0528 13.4841 88.5148 13.4841C86.4319 13.4841 84.4339 13.7941 82.5773 14.4038C80.6976 15.0213 78.9644 16.0051 77.4113 17.3425C76.0252 18.5979 74.9041 20.1044 74.0709 21.821C73.2301 23.558 72.8032 25.3694 72.8032 27.2089C72.8032 28.5258 72.9909 29.812 73.3612 31.0341C73.7341 32.2587 74.2972 33.4347 75.0404 34.5236C75.7784 35.6099 76.663 36.5784 77.6684 37.4033C80.3813 39.6169 83.881 40.7391 88.07 40.7391C90.6697 40.7391 93.1794 40.1703 95.5272 39.0482C97.8981 37.9157 99.8344 36.2812 101.28 34.1854C102.743 32.0666 103.486 29.6301 103.486 26.9399C103.486 24.2498 102.771 22.0131 101.359 19.943C99.963 17.8985 98.0858 16.2895 95.7843 15.1648L95.7818 15.1673ZM88.1188 35.3229C86.3342 35.3229 85.2028 34.6184 84.5573 33.1068C83.8168 31.3697 83.4413 29.2765 83.4413 26.881C83.4413 24.7161 83.8553 22.7869 84.6705 21.1471C85.3982 19.6842 86.5245 19.0027 88.2191 19.0027C89.9137 19.0027 90.9731 19.656 91.6674 21.0575C92.4517 22.6434 92.8477 24.5214 92.8477 26.635C92.8477 35.323 89.2888 35.3229 88.1214 35.3229H88.1188Z" fill="var(--fill-0, #FF4438)"/>
<path id="Vector_4" d="M133.497 34.9796C133.199 34.8541 132.999 34.7029 132.898 34.5262C132.837 34.3263 132.726 33.7422 132.726 32.123V4.76028C132.726 0.827541 131.08 0 129.699 0C128.573 0 126.539 0.484227 123.479 1.48343C122.875 1.61921 122.399 1.73707 122.024 1.84467C121.553 1.98046 121.088 2.20849 120.643 2.52105C120.023 2.9566 119.696 3.57918 119.696 4.31961C119.696 4.91657 119.876 5.39055 120.229 5.72361C120.375 5.8594 120.64 6.07718 121.458 6.55884C121.908 6.79967 122.121 6.98158 122.224 7.09431C122.268 7.14299 122.378 7.30184 122.443 7.66308C122.535 8.35996 122.582 9.58974 122.582 11.3243V14.5524C120.944 13.8427 119.28 13.4815 117.621 13.4815C115.011 13.4815 112.627 14.1041 110.539 15.3339C108.451 16.5636 106.788 18.2648 105.594 20.3913C104.401 22.5153 103.794 24.9082 103.794 27.501C103.794 29.894 104.342 32.1255 105.425 34.1393C106.512 36.1659 108.037 37.7876 109.958 38.9611C111.884 40.137 114.073 40.734 116.461 40.734C119.298 40.734 121.581 39.8885 123.278 38.2129C123.374 38.5101 123.487 38.751 123.62 38.9508C124.24 39.868 125.629 39.9731 126.619 39.9731H131.648C132.649 39.9731 133.425 39.8578 134.022 39.6246C134.516 39.4299 135.341 38.8842 135.341 37.4008C135.341 36.5963 135.022 36.0967 134.755 35.82C134.459 35.5125 134.063 35.2435 133.503 34.9745L133.497 34.9796ZM122.579 23.3454V30.0656C122.579 30.8496 122.535 31.4799 122.448 31.9359C122.371 32.333 122.206 32.743 121.975 33.1222C121.221 34.2546 120.206 34.8054 118.876 34.8054C117.259 34.8054 116.204 34.147 115.554 32.7378C114.811 31.1212 114.433 29.2509 114.433 27.1731C114.433 25.0953 114.847 23.0892 115.662 21.3444C116.384 19.7944 117.493 19.0744 119.146 19.0744C119.617 19.0744 120.108 19.1846 120.599 19.3973C121.075 19.6048 121.458 19.8815 121.754 20.2402C122.08 20.6168 122.291 21.0139 122.396 21.4546C122.517 21.9721 122.582 22.6075 122.582 23.3454H122.579Z" fill="var(--fill-0, #FF4438)"/>
<path id="Vector_5" d="M159.953 15.1545C158.078 14.0477 155.861 13.4841 153.364 13.4841C151.924 13.4841 150.551 13.7249 149.281 14.2014C148.579 14.4628 147.89 14.8009 147.219 15.2109V4.76285C147.219 0.824979 145.573 0 144.192 0C143.068 0 141.034 0.484227 137.972 1.48086C137.37 1.61665 136.894 1.73194 136.516 1.84211C136.048 1.9779 135.583 2.20336 135.133 2.51849C134.513 2.95404 134.187 3.57662 134.187 4.31705C134.187 4.91401 134.367 5.38799 134.719 5.72105C134.853 5.84915 135.125 6.07205 135.948 6.55628C136.395 6.79455 136.611 6.97902 136.714 7.09175C136.758 7.14043 136.869 7.29927 136.933 7.66052C137.025 8.35484 137.072 9.58462 137.072 11.3166V29.0024C137.072 31.1007 137.293 32.8916 137.73 34.3263C138.201 35.8738 139.198 37.2086 140.71 38.3077C141.888 39.125 143.308 39.7425 144.935 40.1447C146.524 40.5367 148.124 40.7366 149.69 40.7366C151.832 40.7366 153.892 40.4291 155.81 39.8193C157.746 39.2045 159.49 38.2744 160.994 37.0575C162.511 35.8277 163.704 34.3007 164.537 32.5201C165.365 30.7446 165.785 28.7026 165.785 26.4455C165.785 23.9628 165.286 21.7236 164.301 19.7867C163.301 17.8242 161.84 16.2639 159.955 15.1494L159.953 15.1545ZM155.147 27.5523C155.147 28.8102 154.997 30.081 154.702 31.3262C154.426 32.4919 153.94 33.4885 153.256 34.2802C152.652 34.9796 151.85 35.3204 150.801 35.3204C149.829 35.3204 149.134 35.0437 148.672 34.4724C148.124 33.7985 147.782 33.0069 147.628 32.0512C147.455 31.0008 147.368 29.7915 147.368 28.4567V24.5367C147.368 23.722 147.417 22.9867 147.517 22.3539C147.602 21.8081 147.797 21.3188 148.126 20.8423C148.468 20.3196 148.893 19.925 149.42 19.6407C149.95 19.3563 150.513 19.2154 151.148 19.2154C152.017 19.2154 153.264 19.4664 154.074 21.6339C154.787 23.5427 155.149 25.5308 155.149 27.5471L155.147 27.5523Z" fill="var(--fill-0, #FF4438)"/>
<path id="Vector_6" d="M195.722 34.9796C195.418 34.8515 195.207 34.6952 195.092 34.5108C195.03 34.2981 194.924 33.7037 194.924 32.123V15.5055L194.855 15.3339C194.531 14.5371 193.736 13.584 191.8 13.584C191.242 13.584 190.44 13.6865 189.344 13.8965C185.644 14.6293 184.543 15.1135 184.037 15.4133L183.96 15.4645C183.026 16.146 182.831 16.9121 182.831 17.4347C182.831 17.7499 182.898 18.0547 183.026 18.3417C183.147 18.6107 183.304 18.8413 183.492 19.0283C183.613 19.1513 183.787 19.305 184.011 19.4921L184.099 19.5561C184.525 19.8354 184.626 20.025 184.644 20.0762C184.703 20.2299 184.775 20.5374 184.775 21.119V29.9119C184.775 30.7753 184.729 31.4927 184.639 32.0435C184.567 32.4868 184.389 32.8813 184.096 33.2477C183.793 33.6269 183.348 33.9599 182.769 34.2392C182.198 34.5185 181.651 34.6594 181.141 34.6594C180.401 34.6594 179.879 34.4928 179.547 34.1495C179.164 33.755 178.933 33.2989 178.843 32.7532C178.729 32.0717 178.67 31.1647 178.67 30.0605V18.5415C178.67 16.9787 178.488 15.8309 178.112 15.029C177.781 14.3244 176.968 13.4866 174.98 13.4866C174.512 13.4866 174.054 13.543 173.62 13.6506C173.358 13.7172 173.082 13.7992 172.848 13.9452C169.385 14.6293 168.3 15.111 167.736 15.444C166.759 16.105 166.554 16.8916 166.554 17.4347C166.554 17.7499 166.62 18.0547 166.749 18.3417C166.875 18.6235 167.047 18.8618 167.25 19.0514C167.374 19.1667 167.546 19.3153 167.76 19.4921L167.847 19.5561C168.274 19.8328 168.372 20.025 168.392 20.0762C168.451 20.2299 168.523 20.5374 168.523 21.119V30.5268C168.523 31.7438 168.629 32.9146 168.837 34.0086C169.061 35.1872 169.31 35.9763 169.644 36.5297C170.586 37.9542 171.735 39.0251 173.059 39.7117C174.373 40.3958 175.957 40.7417 177.765 40.7417C179.573 40.7417 181.252 40.4061 182.772 39.7399C183.818 39.2839 184.826 38.6485 185.783 37.844C185.973 38.4025 186.21 38.8176 186.503 39.1148C187.081 39.7041 188.043 39.9782 189.527 39.9782H193.868C194.85 39.9782 195.621 39.8655 196.223 39.6323C196.722 39.4376 197.56 38.8919 197.56 37.4059C197.56 36.709 197.249 35.7278 195.719 34.9822L195.722 34.9796Z" fill="var(--fill-0, #FF4438)"/>
<path id="Vector_7" d="M219.423 14.7881C218.525 13.9222 217.386 13.4841 216.034 13.4841C214.434 13.4841 212.943 14.0887 211.6 15.2775C210.976 15.8309 210.41 16.4432 209.906 17.1042C209.762 16.5201 209.605 16 209.433 15.5439C208.934 14.2168 207.908 13.4841 206.542 13.4841C205.485 13.4841 203.693 13.9657 200.877 15.011C200.121 15.321 197.82 16.2639 197.82 18.1598C197.82 18.8387 198.013 19.3845 198.393 19.779C198.671 20.0685 199.093 20.3606 199.733 20.7013C200.425 21.0165 200.667 21.2112 200.739 21.2829C200.787 21.3316 200.916 21.4879 201.039 21.9439C201.289 22.7894 201.297 23.0251 201.297 23.0251V32.2511C201.297 33.8626 201.183 34.4314 201.129 34.6107C201.091 34.6568 200.931 34.8208 200.463 35.0591C199.034 35.7867 198.733 36.7346 198.733 37.4033C198.733 38.8868 199.558 39.4325 200.052 39.6272C200.649 39.8629 201.415 39.9756 202.4 39.9756H210.338C211.32 39.9756 212.092 39.8629 212.693 39.6297C213.192 39.435 214.03 38.8893 214.03 37.4059C214.03 36.75 213.727 35.8123 212.269 35.0565C211.801 34.8234 211.647 34.6594 211.608 34.6107C211.554 34.4314 211.441 33.8626 211.441 32.2536V28.2799C211.441 27.2192 211.503 26.2405 211.629 25.3745C211.744 24.5777 211.963 23.8885 212.308 23.2762C212.958 21.9465 213.565 21.9465 213.766 21.9465C213.966 21.9465 214.385 21.9952 215.185 22.2283C216.013 22.4692 216.653 22.587 217.142 22.587C218.281 22.587 219.232 22.072 219.893 21.0959C220.485 20.2248 220.783 19.2359 220.783 18.1598C220.783 16.7968 220.325 15.6618 219.42 14.7907L219.423 14.7881Z" fill="var(--fill-0, #FF4438)"/>
<path id="Vector_8" d="M248.768 14.3552C248.069 14.0682 247.128 13.9273 245.888 13.9273H243.155L235.073 13.4866H235.019C230.663 13.4866 227.155 14.4935 224.594 16.4842C223.11 17.6423 221.971 19.118 221.212 20.8679C220.464 22.5896 220.086 24.4624 220.086 26.4352C220.086 28.9178 220.693 31.1135 221.891 32.9633C223.087 34.8105 224.733 36.2299 226.79 37.1881C228.806 38.1258 231.053 38.6024 233.468 38.6024C234.818 38.6024 236.104 38.4487 237.289 38.1438C238.002 38.4691 238.608 38.8611 239.089 39.3095C239.532 39.722 239.737 40.2216 239.737 40.8826C239.737 41.9202 239.298 42.5607 238.313 42.9553C237.086 43.4498 235.698 43.6983 234.183 43.6983C233.303 43.6983 232.321 43.5471 231.262 43.2525C230.879 43.1449 230.233 42.9143 230.233 42.5838C230.233 42.5838 230.241 42.5018 230.349 42.3225L230.398 42.2277C230.596 41.7819 230.678 41.4924 230.678 41.2285C230.678 40.301 230.112 39.5939 229.13 39.2916C227.61 38.8253 225.772 38.8893 224.069 39.4607C223.066 39.7963 222.215 40.3318 221.544 41.0517C220.809 41.8382 220.436 42.8169 220.436 43.9622C220.436 45.6301 221.31 47.8206 225.481 48.7711C228.407 49.4398 231.403 49.778 234.386 49.778C236.508 49.778 238.68 49.5603 240.846 49.1324C243.085 48.6892 245.065 47.8488 246.734 46.6318C248.547 45.3098 249.468 43.4754 249.468 41.1798C249.468 39.2736 248.773 37.7185 247.405 36.5579C246.595 35.8712 245.662 35.3127 244.623 34.8874C247.267 32.6149 248.604 29.6173 248.604 25.951C248.604 24.5188 248.352 23.1122 247.855 21.7672C247.583 21.0318 247.233 20.3324 246.811 19.6765C247.596 19.615 248.244 19.4844 248.779 19.2794C249.321 19.0719 250.231 18.4929 250.231 16.9428C250.231 15.3005 249.442 14.6293 248.779 14.3552H248.768ZM231.079 22.4615C231.334 21.3598 231.784 20.3913 232.419 19.5792C232.961 18.8823 233.602 18.5595 234.427 18.5595C235.065 18.5595 235.584 18.7439 236.016 19.1206C236.51 19.5535 236.901 20.1146 237.181 20.791C237.487 21.5366 237.703 22.3129 237.824 23.102C237.948 23.9193 238.012 24.7391 238.012 25.5385C238.012 26.7478 237.888 27.9776 237.647 29.1971C237.423 30.327 236.994 31.298 236.369 32.082C235.824 32.766 235.106 33.0837 234.108 33.0837C232.815 33.0837 232.023 32.497 231.542 31.1801C230.966 29.607 230.675 27.8238 230.675 25.8818C230.675 24.7801 230.812 23.6272 231.082 22.4589L231.079 22.4615Z" fill="var(--fill-0, #FF4438)"/>
<path id="Vector_9" d="M275.869 30.6805C275.403 30.6805 274.995 30.7599 274.658 30.9137C274.354 31.052 274.059 31.2519 273.755 31.5234C273.539 31.7156 273.354 31.8719 273.156 32.0333C272.115 32.9812 271.094 33.6909 270.124 34.147C269.198 34.5825 268.147 34.8054 266.995 34.8054C266.066 34.8054 265.238 34.6184 264.464 34.2315C263.688 33.8447 263.05 33.3066 262.51 32.5867C262.176 32.1409 261.908 31.6592 261.71 31.1494C262.263 31.0648 262.924 30.9675 263.696 30.8547C265.056 30.6575 266.249 30.4602 267.239 30.2706C268.244 30.0784 269.247 29.8248 270.23 29.5148C272.279 28.841 274.035 27.893 275.452 26.6965C277.003 25.3925 277.79 23.7374 277.79 21.7825C277.79 19.8277 277.18 18.2546 275.977 16.9787C274.835 15.7694 273.367 14.8701 271.618 14.3039C269.926 13.7608 268.198 13.4841 266.48 13.4841C263.69 13.4841 261.037 14.0631 258.591 15.2083C256.12 16.3664 254.107 18.0624 252.613 20.2504C251.103 22.4563 250.339 25.0312 250.339 27.8981C250.339 30.4448 251.041 32.7327 252.422 34.6952C253.788 36.6347 255.608 38.1463 257.84 39.1865C260.047 40.2165 262.412 40.7366 264.878 40.7366C266.542 40.7366 268.106 40.5623 269.53 40.219C270.97 39.8706 272.39 39.289 273.732 38.5025C274.305 38.1796 274.941 37.7364 275.619 37.1804C276.316 36.6091 276.926 35.9788 277.43 35.3076C278.013 34.5287 278.309 33.7447 278.309 32.9812C278.309 32.3484 278.042 31.7771 277.533 31.3262C277.057 30.9034 276.483 30.678 275.874 30.678L275.869 30.6805ZM261.605 23.0636C262.009 21.8005 262.61 20.7577 263.395 19.9712C264.11 19.2512 264.943 18.9002 265.933 18.9002C266.637 18.9002 267.139 19.0821 267.47 19.4588C267.833 19.8712 268.01 20.4477 268.01 21.2138C268.01 22.7049 267.298 23.7476 265.771 24.4983C264.333 25.2054 262.739 25.6871 261.021 25.9356C261.106 24.98 261.302 24.0166 261.608 23.061L261.605 23.0636Z" fill="var(--fill-0, #FF4438)"/>
<path id="Vector_10" d="M296.824 13.4841C295.224 13.4841 293.733 14.0887 292.391 15.2775C291.766 15.8309 291.2 16.4432 290.696 17.1042C290.552 16.5201 290.395 16 290.223 15.5439C289.724 14.2168 288.698 13.4841 287.332 13.4841C286.276 13.4841 284.483 13.9657 281.668 15.011C280.912 15.321 278.61 16.2639 278.61 18.1598C278.61 18.8387 278.803 19.3845 279.183 19.779C279.461 20.0685 279.883 20.3606 280.523 20.7013C281.215 21.0165 281.457 21.2112 281.529 21.2829C281.578 21.3316 281.706 21.4879 281.83 21.9439C282.079 22.7894 282.087 23.0251 282.087 23.0251V32.2511C282.087 33.8626 281.974 34.4314 281.92 34.6107C281.881 34.6568 281.722 34.8208 281.254 35.0591C279.824 35.7867 279.523 36.7346 279.523 37.4033C279.523 38.8868 280.348 39.4325 280.842 39.6272C281.439 39.8629 282.205 39.9756 283.19 39.9756H291.128C292.11 39.9756 292.882 39.8629 293.483 39.6297C293.982 39.435 294.821 38.8893 294.821 37.4059C294.821 36.75 294.517 35.8123 293.059 35.0565C292.591 34.8234 292.437 34.6594 292.398 34.6107C292.344 34.4314 292.231 33.8626 292.231 32.2536V28.2799C292.231 27.2192 292.293 26.2405 292.419 25.3745C292.535 24.5777 292.753 23.8885 293.098 23.2762C293.748 21.9465 294.355 21.9465 294.556 21.9465C294.756 21.9465 295.175 21.9952 295.975 22.2283C296.803 22.4692 297.443 22.587 297.932 22.587C299.071 22.587 300.023 22.072 300.683 21.0959C301.275 20.2248 301.573 19.2359 301.573 18.1598C301.573 16.7968 301.115 15.6618 300.21 14.7907C299.313 13.9247 298.174 13.4866 296.821 13.4866L296.824 13.4841Z" fill="var(--fill-0, #FF4438)"/>
</g>
<path id="Vector_11" d="M316.809 9.86388C318.205 11.2551 318.905 12.9332 318.905 14.8983C318.905 16.8634 318.19 18.6235 316.763 20.0096C315.374 21.3495 313.705 22.0208 311.759 22.0208C309.812 22.0208 308.053 21.3342 306.678 19.9635C305.302 18.5928 304.613 16.9044 304.613 14.9009C304.613 12.8973 305.356 11.0911 306.842 9.71272C308.238 8.42401 309.876 7.78094 311.759 7.78094C313.641 7.78094 315.415 8.47782 316.812 9.86901L316.809 9.86388ZM311.756 8.99279C310.113 8.99279 308.714 9.58462 307.557 10.7708C306.418 11.9289 305.85 13.3047 305.85 14.8957C305.85 16.4868 306.428 17.9446 307.585 19.0975C308.735 20.2504 310.126 20.8269 311.756 20.8269C313.387 20.8269 314.765 20.2479 315.917 19.0873C317.066 17.9215 317.642 16.5226 317.642 14.8932C317.642 13.2637 317.071 11.934 315.927 10.7683C314.77 9.58206 313.379 8.99023 311.756 8.99023V8.99279ZM310.699 16.0666V18.8592H308.624V10.9656C309.115 10.9656 309.851 10.9656 310.83 10.9707C311.81 10.9733 312.355 10.9784 312.463 10.9861C313.091 11.0322 313.61 11.1654 314.024 11.3909C314.729 11.7777 315.081 12.4054 315.081 13.274C315.081 13.9375 314.896 14.4166 314.523 14.7138C314.15 15.011 313.693 15.1878 313.15 15.2467C313.649 15.3492 314.022 15.5004 314.276 15.7002C314.742 16.0743 314.973 16.6636 314.973 17.468V18.1726C314.973 18.2495 314.978 18.3263 314.989 18.4057C314.999 18.4826 315.017 18.5595 315.043 18.6363L315.109 18.8592H313.132C313.068 18.6082 313.024 18.2443 313.006 17.7678C312.988 17.2913 312.944 16.9684 312.88 16.8019C312.777 16.5252 312.582 16.3305 312.299 16.2229C312.144 16.1588 311.908 16.1153 311.592 16.0973L311.136 16.0692H310.699V16.0666ZM311.504 14.6447C311.99 14.6447 312.368 14.5473 312.638 14.3552C312.911 14.163 313.045 13.8504 313.045 13.4174C313.045 12.9845 312.831 12.6873 312.404 12.5182C312.119 12.408 311.72 12.3542 311.201 12.3542H310.697V14.6447H311.502H311.504Z" fill="var(--fill-0, #FF4438)" stroke="var(--stroke-0, #FF4438)" stroke-width="0.75" stroke-miterlimit="10"/>
</g>
<defs>
<clipPath id="clip0_0_103">
<rect width="319" height="49.778" fill="white"/>
</clipPath>
</defs>
</svg>
