<svg viewBox="0 0 166 73.3423" fill="none" xmlns="http://www.w3.org/2000/svg" aria-hidden="true">
<g id="Navigation Bar Logo">
<path id="Vector_2" d="M10.874 7.35103V13.8848H15.1066V7.35103H18.7313V24.4414H15.1066V16.8497H10.874V24.4414H7.24934V7.35103H10.874Z" fill="white"/>
<path id="Vector_3" d="M21.0585 12.3229C21.1855 11.2331 21.4622 10.2933 21.8841 9.5123C22.3106 8.73134 22.9321 8.12291 23.735 7.68249C24.538 7.24206 25.6267 7.02866 26.9832 7.02866C28.3396 7.02866 29.4283 7.25114 30.2313 7.68249C31.0343 8.12291 31.6512 8.73134 32.0822 9.5123C32.5086 10.2933 32.7854 11.2331 32.9079 12.3229C33.0349 13.4217 33.0984 14.6113 33.0984 15.9053C33.0984 17.1993 33.0349 18.4162 32.9079 19.4968C32.7808 20.5865 32.5041 21.5173 32.0822 22.2983C31.6558 23.0792 31.0343 23.6786 30.2313 24.0963C29.4283 24.514 28.3396 24.7184 26.9832 24.7184C25.6267 24.7184 24.538 24.514 23.735 24.0963C22.9321 23.6786 22.306 23.0883 21.8841 22.2983C21.4577 21.5173 21.181 20.5865 21.0585 19.4968C20.936 18.4071 20.868 17.2175 20.868 15.9053C20.868 14.5931 20.9315 13.4217 21.0585 12.3229ZM24.5834 18.8339C24.6469 19.6376 24.7557 20.2914 24.9372 20.7999C25.1096 21.3039 25.3636 21.6672 25.6948 21.8987C26.026 22.1257 26.4524 22.2438 26.9968 22.2438C27.5412 22.2438 27.9676 22.1257 28.2897 21.8987C28.6118 21.6717 28.8658 21.2994 29.0473 20.7999C29.2197 20.2959 29.3376 19.6421 29.4011 18.8339C29.4556 18.0302 29.4873 17.0495 29.4873 15.9008C29.4873 14.752 29.4556 13.7803 29.4011 12.9812C29.3376 12.1821 29.2287 11.5283 29.0473 11.0152C28.8749 10.5021 28.6208 10.1298 28.2897 9.90278C27.9585 9.67576 27.5321 9.55771 26.9968 9.55771C26.4615 9.55771 26.026 9.67576 25.6948 9.90278C25.3727 10.1298 25.1187 10.5021 24.9372 11.0152C24.7648 11.5283 24.6469 12.1821 24.5834 12.9812C24.5198 13.7803 24.4972 14.7566 24.4972 15.9008C24.4972 17.045 24.5289 18.0302 24.5834 18.8339Z" fill="white"/>
<path id="Vector_4" d="M35.0582 12.3229C35.1852 11.2331 35.462 10.2933 35.8839 9.5123C36.3103 8.73134 36.9318 8.12291 37.7348 7.68249C38.5377 7.24206 39.6265 7.02866 40.9829 7.02866C42.3393 7.02866 43.4281 7.25114 44.231 7.68249C45.034 8.12291 45.651 8.73134 46.0819 9.5123C46.5084 10.2933 46.7851 11.2331 46.9076 12.3229C47.0346 13.4217 47.0981 14.6113 47.0981 15.9053C47.0981 17.1993 47.0346 18.4162 46.9076 19.4968C46.7806 20.5774 46.5038 21.5173 46.0819 22.2983C45.6555 23.0792 45.034 23.6786 44.231 24.0963C43.4281 24.514 42.3393 24.7184 40.9829 24.7184C39.6265 24.7184 38.5377 24.514 37.7348 24.0963C36.9318 23.6786 36.3148 23.0883 35.8839 22.2983C35.4574 21.5173 35.1807 20.5865 35.0582 19.4968C34.9357 18.4071 34.8677 17.2175 34.8677 15.9053C34.8677 14.5931 34.9312 13.4217 35.0582 12.3229ZM38.5831 18.8339C38.6375 19.6376 38.7555 20.2914 38.9369 20.7999C39.1093 21.3039 39.3634 21.6672 39.6945 21.8987C40.0257 22.1303 40.4521 22.2438 40.9965 22.2438C41.5409 22.2438 41.9673 22.1257 42.2894 21.8987C42.6206 21.6717 42.8746 21.2994 43.047 20.7999C43.2194 20.2959 43.3374 19.6421 43.4009 18.8339C43.4553 18.0302 43.4871 17.0495 43.4871 15.9008C43.4871 14.752 43.4553 13.7803 43.4009 12.9812C43.3374 12.1821 43.2285 11.5283 43.047 11.0152C42.8746 10.5021 42.6206 10.1298 42.2894 9.90278C41.9583 9.67576 41.5318 9.55771 40.9965 9.55771C40.4612 9.55771 40.0257 9.67576 39.6945 9.90278C39.3634 10.1298 39.1093 10.5021 38.9369 11.0152C38.7646 11.5283 38.6466 12.1821 38.5831 12.9812C38.5196 13.7803 38.4969 14.7566 38.4969 15.9008C38.4969 17.045 38.5287 18.0302 38.5831 18.8339Z" fill="white"/>
<path id="Vector_5" d="M55.3726 7.35103C56.6337 7.35103 57.6499 7.54627 58.4256 7.93675C59.1969 8.33177 59.7957 8.88571 60.2221 9.60765C60.6485 10.3341 60.9389 11.2104 61.0886 12.2275C61.2383 13.2446 61.3154 14.3888 61.3154 15.651C61.3154 17.1494 61.2201 18.4525 61.0251 19.5649C60.83 20.6773 60.4988 21.5854 60.0316 22.3028C59.5598 23.0202 58.9292 23.556 58.1398 23.9056C57.3505 24.2507 56.3525 24.4323 55.1458 24.4323H49.4297V7.35103H55.3726ZM54.674 21.9078C55.3136 21.9078 55.8262 21.8034 56.2118 21.599C56.5974 21.3947 56.9059 21.0451 57.1327 20.5729C57.3596 20.0916 57.5093 19.4605 57.5909 18.6795C57.6726 17.8986 57.6998 16.9269 57.6998 15.76C57.6998 14.7883 57.6681 13.9393 57.5955 13.1946C57.5229 12.4591 57.3913 11.8552 57.1781 11.3648C56.9649 10.8744 56.6564 10.5112 56.2481 10.2615C55.8398 10.0163 55.2864 9.88916 54.6014 9.88916H53.0635V21.9078H54.674Z" fill="white"/>
<path id="Vector_6" d="M69.7759 7.35103C70.5153 7.35103 71.2049 7.42368 71.8264 7.56443C72.4569 7.70519 73.0013 7.95037 73.4504 8.28183C73.9086 8.61328 74.2534 9.06279 74.5074 9.62127C74.7615 10.1797 74.884 10.8699 74.884 11.6826C74.884 12.6044 74.6571 13.4035 74.208 14.0664C73.7589 14.7293 73.0739 15.1788 72.1666 15.4149V15.4603C73.1737 15.5875 73.9721 15.9961 74.5619 16.6817C75.1516 17.3673 75.4465 18.2845 75.4465 19.4332C75.4465 20.1052 75.3512 20.7409 75.1698 21.3493C74.9883 21.9577 74.6753 22.4844 74.2216 22.943C73.7816 23.4016 73.1964 23.7649 72.4887 24.0327C71.781 24.3006 70.8873 24.4414 69.8303 24.4414H63.7105V7.35103H69.7804H69.7713H69.7759ZM68.365 14.3661C69.3721 14.3661 70.107 14.1935 70.5743 13.853C71.0325 13.5125 71.2684 12.9313 71.2684 12.1185C71.2684 11.3058 71.0552 10.7291 70.6378 10.3977C70.2204 10.0572 69.5581 9.8937 68.6508 9.8937H67.3443V14.3661H68.3786H68.3695H68.365ZM68.7461 21.9078C69.6216 21.9078 70.3248 21.7262 70.8601 21.3539C71.3954 20.9815 71.663 20.3141 71.663 19.3197C71.663 18.8294 71.5905 18.4116 71.4498 18.0893C71.3092 17.7669 71.1096 17.499 70.8737 17.2992C70.6287 17.104 70.3384 16.9587 70.0072 16.8815C69.667 16.8043 69.3041 16.7634 68.8958 16.7634H67.3352V21.9078H68.7461Z" fill="white"/>
<path id="Vector_7" d="M81.1129 19.2743C81.1129 19.7102 81.1446 20.1007 81.1991 20.4594C81.2535 20.8181 81.3624 21.1314 81.5302 21.3902C81.6981 21.649 81.9068 21.8624 82.1835 22.0122C82.4602 22.1621 82.805 22.2393 83.2314 22.2393C83.6579 22.2393 84.0208 22.1621 84.2884 22.0122C84.5561 21.8624 84.7693 21.649 84.9281 21.3902C85.0869 21.1314 85.1957 20.8136 85.2593 20.4594C85.3137 20.0962 85.3454 19.7011 85.3454 19.2743V7.35104H88.9701V19.2743C88.9701 20.364 88.8113 21.254 88.4892 21.9668C88.1672 22.6751 87.7407 23.2382 87.2054 23.6559C86.6701 24.0736 86.0531 24.3506 85.3681 24.4913C84.6831 24.6321 83.9663 24.7047 83.2314 24.7047C82.4965 24.7047 81.7797 24.6412 81.0857 24.514C80.3916 24.3869 79.7837 24.1281 79.2484 23.7331C78.7131 23.3381 78.2866 22.7841 77.9645 22.0667C77.6424 21.3493 77.4837 20.4185 77.4837 19.2653V7.34196H81.1083V19.2698L81.1129 19.2743Z" fill="white"/>
<path id="Vector_8" d="M97.9614 7.35103C99.4766 7.35103 100.652 7.71427 101.486 8.44074C102.321 9.16722 102.747 10.2706 102.747 11.7553C102.747 12.9086 102.503 13.8394 102.013 14.5658C101.523 15.2923 100.765 15.7555 99.7443 15.9689V16.0143C100.652 16.1414 101.314 16.4229 101.731 16.8497C102.149 17.2765 102.407 17.9803 102.512 18.9338C102.543 19.2516 102.566 19.5967 102.589 19.9736C102.602 20.3459 102.62 20.7727 102.634 21.2267C102.666 22.1348 102.72 22.8295 102.784 23.3108C102.888 23.7921 103.101 24.1145 103.437 24.287V24.4278H99.5129C99.3315 24.1917 99.2135 23.9147 99.1591 23.6014C99.1137 23.2926 99.0729 22.9703 99.0547 22.6297L98.9504 19.347C98.9187 18.675 98.7372 18.1483 98.4242 17.7669C98.1112 17.3855 97.5668 17.1902 96.8137 17.1902H94.8766V24.4187H91.252V7.35103H97.9614ZM96.4009 14.8156C97.2764 14.8156 97.9478 14.6203 98.4196 14.2299C98.8914 13.8394 99.1228 13.181 99.1228 12.2593C99.1228 10.6792 98.279 9.8937 96.6096 9.8937H94.8993V14.8247H96.4145L96.4054 14.8156H96.4009Z" fill="white"/>
<path id="Vector_9" d="M113.136 11.4465C113.059 11.1151 112.941 10.8063 112.773 10.5248C112.61 10.2479 112.397 10.0118 112.133 9.83013C111.87 9.64851 111.557 9.55316 111.185 9.55316C110.31 9.55316 109.679 10.0208 109.294 10.9426C108.908 11.8643 108.708 13.4035 108.708 15.533C108.708 16.55 108.74 17.4808 108.813 18.3117C108.876 19.1381 109.003 19.851 109.176 20.4321C109.348 21.0133 109.602 21.4583 109.933 21.7716C110.255 22.0803 110.682 22.2393 111.203 22.2393C111.426 22.2393 111.662 22.1848 111.92 22.0758C112.179 21.9668 112.424 21.7988 112.655 21.5718C112.882 21.3493 113.073 21.0678 113.222 20.7182C113.372 20.3686 113.449 19.969 113.449 19.5104V17.7669H111.054V15.2242H116.919V24.4414H114.247V22.8613H114.202C113.767 23.5333 113.24 24.0055 112.623 24.2825C112.006 24.5594 111.276 24.7002 110.423 24.7002C109.312 24.7002 108.414 24.5186 107.71 24.1463C107.016 23.783 106.463 23.2155 106.073 22.4481C105.683 21.6808 105.41 20.7364 105.274 19.6149C105.138 18.4843 105.07 17.1857 105.07 15.701C105.07 14.2162 105.165 13.0039 105.36 11.9233C105.556 10.8336 105.887 9.93456 106.354 9.20809C106.826 8.48161 107.443 7.93675 108.223 7.56898C108.994 7.20574 109.956 7.01504 111.117 7.01504C113.095 7.01504 114.524 7.48271 115.4 8.4135C116.275 9.3443 116.706 10.6837 116.706 12.4227H113.231C113.231 12.1049 113.19 11.778 113.122 11.4465H113.136Z" fill="white"/>
<path id="Vector_10" d="M129.313 10.1752H122.889V14.1981H128.937V17.0222H122.889V21.6127H129.567V24.4368H119.265V7.35103H129.318V10.1752H129.313Z" fill="white"/>
<path id="Vector_11" d="M138.078 7.35103C139.593 7.35103 140.768 7.71427 141.603 8.44074C142.437 9.16722 142.864 10.2706 142.864 11.7553C142.864 12.9086 142.619 13.8394 142.129 14.5658C141.639 15.2923 140.881 15.7555 139.861 15.9689V16.0143C140.768 16.1414 141.43 16.4229 141.848 16.8497C142.265 17.2765 142.523 17.9803 142.628 18.9338C142.66 19.2516 142.682 19.5967 142.705 19.9736C142.719 20.3459 142.737 20.7727 142.75 21.2267C142.782 22.1348 142.837 22.8295 142.9 23.3108C143.004 23.7921 143.218 24.1145 143.553 24.287V24.4278H139.629C139.448 24.1917 139.33 23.9147 139.275 23.6014C139.23 23.2926 139.189 22.9703 139.171 22.6297L139.067 19.347C139.035 18.675 138.853 18.1483 138.54 17.7669C138.223 17.39 137.683 17.1902 136.93 17.1902H134.993V24.4187H131.368V7.35103H138.078ZM136.517 14.8156C137.393 14.8156 138.064 14.6203 138.536 14.2299C139.008 13.8394 139.239 13.181 139.239 12.2593C139.239 10.6792 138.395 9.8937 136.726 9.8937H135.016V14.8247H136.531L136.522 14.8156H136.517Z" fill="white"/>
<path id="Vector_12" d="M17.2885 27.5516V30.3758H10.8648V34.3987H16.912V37.2228H10.8648V44.6374H7.24016V27.5471H17.2931L17.2885 27.5516Z" fill="white"/>
<path id="Vector_13" d="M25.5268 27.5516L30.2901 44.642H26.5158L25.6901 41.0278H20.9041L20.0785 44.642H16.3041L21.0674 27.5516H25.554H25.5404H25.5268ZM25.0459 38.2036L23.313 30.5166H23.2676L21.5347 38.2036H25.0595H25.0505H25.0459Z" fill="white"/>
<path id="Vector_14" d="M37.0134 27.5516L39.5856 39.6157H39.6309L42.2258 27.5516H47.588V44.642H44.2627V30.9978H44.2174L41.0146 44.642H38.1929L34.9901 30.9978H34.9447V44.642H31.6195V27.5516H37.0179H37.0134Z" fill="white"/>
<path id="Vector_15" d="M50.3596 27.5516H53.9843V44.642H50.3596V27.5516Z" fill="white"/>
<path id="Vector_16" d="M56.6839 27.5516H60.3085V41.8178H66.7322V44.642H56.6793V27.5516H56.6839Z" fill="white"/>
<path id="Vector_17" d="M71.2912 34.1535H71.3366L73.8498 27.5471H77.7739L73.1149 37.9085V44.6374H69.4902V37.9085L64.8312 27.5471H68.905L71.2685 34.1535H71.2822H71.2912Z" fill="white"/>
<path id="Vector_18" d="M13.9407 47.7431C15.4559 47.7431 16.6309 48.1064 17.4656 48.8328C18.3003 49.5593 18.7267 50.6626 18.7267 52.1474C18.7267 53.3007 18.4817 54.2315 17.9918 54.9579C17.5019 55.6844 16.7443 56.1475 15.7235 56.3564V56.4018C16.6309 56.5289 17.2932 56.8105 17.7105 57.2373C18.1279 57.6641 18.3865 58.3678 18.4908 59.3213C18.5226 59.6437 18.5453 59.9933 18.5679 60.3611C18.5815 60.7334 18.5997 61.1602 18.6133 61.6143C18.6451 62.5224 18.6995 63.2171 18.763 63.6984C18.8674 64.1797 19.0806 64.502 19.4163 64.6746V64.8153H15.4922C15.3107 64.5792 15.1928 64.3022 15.1383 63.989C15.0839 63.6757 15.0521 63.3578 15.034 63.0173L14.9297 59.7345C14.8979 59.0625 14.7164 58.5358 14.4034 58.1544C14.0859 57.7685 13.546 57.5778 12.793 57.5778H10.8559V64.8062H7.2312V47.7159H13.9316L13.9407 47.7386V47.7431ZM12.3801 55.2077C13.2557 55.2077 13.9271 55.0124 14.3989 54.6219C14.8707 54.236 15.102 53.5731 15.102 52.6514C15.102 51.0713 14.2673 50.2858 12.5888 50.2858H10.8786V55.2167H12.3938L12.3847 55.2077H12.3801Z" fill="white"/>
<path id="Vector_19" d="M31.2974 50.5673H24.8737V54.5902H30.9208V57.4143H24.8737V62.0048H31.5423V64.8289H21.2399V47.7386H31.2928V50.5628H31.3019L31.2974 50.5673Z" fill="white"/>
<path id="Vector_20" d="M36.283 60.0024C36.283 60.4065 36.3148 60.7698 36.3874 61.0921C36.46 61.4145 36.5824 61.6915 36.7639 61.9185C36.9454 62.141 37.1994 62.3226 37.5034 62.4452C37.8073 62.5678 38.2065 62.6359 38.6783 62.6359C39.2318 62.6359 39.7353 62.4634 40.1754 62.1228C40.6154 61.7823 40.8468 61.2465 40.8468 60.5291C40.8468 60.1432 40.7923 59.8208 40.6834 59.5347C40.5746 59.2578 40.3931 59.0081 40.1391 58.7765C39.885 58.5449 39.5539 58.3497 39.1456 58.1681C38.7373 57.9864 38.2247 57.7957 37.6258 57.6096C36.8229 57.3553 36.1197 57.0738 35.5345 56.7741C34.9448 56.4745 34.4548 56.1203 34.0601 55.7071C33.6655 55.2939 33.3751 54.8308 33.1937 54.295C33.0122 53.7593 32.9169 53.1418 32.9169 52.4425C32.9169 50.7535 33.4114 49.4912 34.4004 48.6648C35.3939 47.8385 36.7503 47.4162 38.4832 47.4162C39.2862 47.4162 40.0302 47.5025 40.7152 47.6705C41.3911 47.8339 41.9854 48.1109 42.4799 48.4832C42.9744 48.8555 43.3645 49.3368 43.6367 49.918C43.9089 50.4992 44.0541 51.1984 44.0541 52.0157V52.497H40.5791C40.5791 51.6843 40.4294 51.0622 40.1209 50.6173C39.8215 50.1768 39.318 49.9634 38.6057 49.9634C38.202 49.9634 37.8663 50.0179 37.5986 50.1269C37.331 50.2359 37.1177 50.3857 36.959 50.5673C36.8002 50.7489 36.6913 50.9623 36.6278 51.1984C36.5643 51.4345 36.5416 51.6888 36.5416 51.9385C36.5416 52.4652 36.6596 52.9102 36.8955 53.2643C37.1314 53.6185 37.6349 53.959 38.4107 54.2587L41.2097 55.412C41.8947 55.698 42.4618 55.9977 42.8973 56.311C43.3328 56.6198 43.6866 56.9558 43.9452 57.3145C44.2038 57.6732 44.3852 58.0727 44.4896 58.4995C44.5939 58.9263 44.6393 59.4076 44.6393 59.9343C44.6393 61.7414 44.0858 63.0491 42.9925 63.8709C41.8992 64.6927 40.3614 65.1014 38.397 65.1014C36.4327 65.1014 34.8812 64.6746 33.9966 63.83C33.112 62.9855 32.672 61.7687 32.672 60.1931V59.4984H36.2966V60.0024L36.283 59.9933V60.0024Z" fill="white"/>
<path id="Vector_21" d="M56.9605 50.5673H53.0364V64.8335H49.4117V50.5673H45.4876V47.7431H56.9741V50.5673H56.965H56.9605Z" fill="white"/>
<path id="Vector_22" d="M65.117 47.7431L69.8804 64.8335H66.106L65.2803 61.2193H60.4943L59.6687 64.8335H55.8943L60.6576 47.7431H65.1442H65.1306H65.117ZM64.6361 58.3951L62.9032 50.7081H62.8578L61.1249 58.3951H64.6498H64.6407H64.6361Z" fill="white"/>
<path id="Vector_23" d="M74.5393 59.6664C74.5393 60.0932 74.571 60.4928 74.6255 60.8515C74.6799 61.2102 74.7888 61.5235 74.9566 61.7823C75.1154 62.0411 75.3332 62.2545 75.6099 62.4043C75.8866 62.5542 76.2314 62.6314 76.6578 62.6314C77.0843 62.6314 77.4472 62.5542 77.7148 62.4043C77.9825 62.2545 78.1957 62.0411 78.3545 61.7823C78.5133 61.5235 78.6221 61.2056 78.6857 60.8515C78.7401 60.4883 78.7718 60.0932 78.7718 59.6664V47.7431H82.3965V59.6664C82.3965 60.7561 82.2377 61.6461 81.9156 62.3589C81.5981 63.0672 81.1671 63.6303 80.6318 64.048C80.0965 64.4657 79.4795 64.7427 78.7945 64.8834C78.1095 65.0242 77.3927 65.0968 76.6578 65.0968C75.9229 65.0968 75.2061 65.0333 74.5121 64.9061C73.827 64.779 73.2101 64.5202 72.6748 64.1343C72.1395 63.7392 71.713 63.1853 71.3909 62.4679C71.0688 61.7505 70.9101 60.8197 70.9101 59.6664V47.7431H74.5347V59.6664H74.5393Z" fill="white"/>
<path id="Vector_24" d="M91.3835 47.7431C92.8987 47.7431 94.0737 48.1064 94.9084 48.8328C95.7431 49.5593 96.1695 50.6626 96.1695 52.1474C96.1695 53.3007 95.9246 54.2315 95.4346 54.9579C94.9447 55.6844 94.1871 56.1475 93.1664 56.3564V56.4018C94.0737 56.5289 94.736 56.8105 95.1533 57.2373C95.5707 57.6731 95.8293 58.3678 95.9336 59.3213C95.9654 59.6437 95.9881 59.9933 96.0107 60.3611C96.0244 60.7334 96.0425 61.1602 96.0561 61.6143C96.0879 62.5224 96.1423 63.2171 96.2058 63.6984C96.3102 64.1797 96.5234 64.502 96.8591 64.6746V64.8153H92.935C92.7535 64.5792 92.6356 64.3022 92.5811 63.989C92.5358 63.6802 92.495 63.3578 92.4768 63.0173L92.3725 59.7345C92.3407 59.0625 92.1593 58.5358 91.8462 58.1544C91.5287 57.7685 90.9888 57.5778 90.2358 57.5778H88.2987V64.8062H84.674V47.7159H91.3744L91.3835 47.7386V47.7431ZM89.8229 55.2077C90.6985 55.2077 91.3699 55.0124 91.8417 54.6219C92.3135 54.236 92.5449 53.5731 92.5449 52.6514C92.5449 51.0713 91.7011 50.2858 90.0316 50.2858H88.3214V55.2167H89.8366L89.8275 55.2077H89.8229Z" fill="white"/>
<path id="Vector_25" d="M106.671 47.7431L111.435 64.8335H107.66L106.835 61.2193H102.049L101.223 64.8335H97.4486L102.212 47.7431H106.699H106.685H106.671ZM106.19 58.3951L104.448 50.7081H104.403L102.67 58.3951H106.195H106.19Z" fill="white"/>
<path id="Vector_26" d="M121.256 59.453H121.302V47.7522H124.627V64.8426H120.494L116.062 52.8739H116.017V64.8426H112.691V47.7522H116.87L121.252 59.453H121.256Z" fill="white"/>
<path id="Vector_27" d="M137.678 50.5673H133.754V64.8335H130.13V50.5673H126.206V47.7431H137.692V50.5673H137.683H137.678Z" fill="white"/>
<path id="Vector_28" d="M142.156 60.0024C142.156 60.4065 142.188 60.7698 142.26 61.0921C142.333 61.4145 142.455 61.6915 142.637 61.9185C142.818 62.141 143.072 62.3226 143.376 62.4452C143.68 62.5678 144.08 62.6359 144.551 62.6359C145.105 62.6359 145.608 62.4634 146.048 62.1228C146.488 61.7823 146.72 61.2465 146.72 60.5291C146.72 60.1432 146.665 59.8208 146.556 59.5347C146.448 59.2578 146.266 59.0081 146.012 58.7765C145.758 58.5449 145.427 58.3497 145.019 58.1681C144.61 57.9864 144.098 57.7957 143.499 57.6096C142.696 57.3553 141.993 57.0738 141.408 56.7741C140.818 56.4745 140.328 56.1203 139.933 55.7071C139.539 55.2939 139.248 54.8308 139.067 54.295C138.885 53.7593 138.79 53.1418 138.79 52.4425C138.79 50.7535 139.284 49.4912 140.273 48.6648C141.267 47.8385 142.623 47.4162 144.356 47.4162C145.159 47.4162 145.903 47.5025 146.588 47.6705C147.264 47.8339 147.858 48.1109 148.353 48.4832C148.847 48.8555 149.238 49.3368 149.51 49.918C149.782 50.4992 149.927 51.1984 149.927 52.0157V52.497H146.452C146.452 51.6843 146.302 51.0622 145.994 50.6173C145.695 50.1768 145.191 49.9634 144.479 49.9634C144.075 49.9634 143.739 50.0179 143.472 50.1269C143.204 50.2359 142.991 50.3857 142.832 50.5673C142.673 50.7489 142.564 50.9623 142.501 51.1984C142.437 51.4345 142.415 51.6888 142.415 51.9385C142.415 52.4652 142.533 52.9102 142.769 53.2643C143.004 53.6185 143.508 53.959 144.284 54.2587L147.083 55.412C147.768 55.698 148.335 55.9977 148.77 56.311C149.206 56.6198 149.56 56.9558 149.818 57.3145C150.077 57.6732 150.258 58.0727 150.363 58.4995C150.467 58.9263 150.512 59.4076 150.512 59.9343C150.512 61.7414 149.959 63.0491 148.866 63.8709C147.772 64.6927 146.234 65.1014 144.27 65.1014C142.306 65.1014 140.754 64.6746 139.87 63.83C138.985 62.9855 138.545 61.7687 138.545 60.1931V59.4984H142.17V60.0024L142.156 59.9933V60.0024Z" fill="white"/>
<path id="Vector_29" d="M148.353 4.99453C146.044 4.99453 144.166 6.87429 144.166 9.18539C144.166 11.4965 146.044 13.3763 148.353 13.3763C150.662 13.3763 152.54 11.4965 152.54 9.18539C152.54 6.87429 150.662 4.99453 148.353 4.99453ZM146.135 7.25569V11.1151C145.686 10.5929 145.4 9.92549 145.4 9.18085C145.4 8.43621 145.686 7.76876 146.135 7.24661V7.25569ZM146.634 11.5828H147.618V9.64398H147.754C147.89 9.64398 148.008 9.68484 148.117 9.75295C148.194 9.80744 148.28 9.93457 148.385 10.1253L149.174 11.5918H150.063C149.582 11.9369 148.993 12.1503 148.353 12.1503C147.713 12.1503 147.124 11.9369 146.643 11.5918L146.634 11.5828ZM147.618 8.73134V7.75968H148.262C148.53 7.75968 148.72 7.80054 148.816 7.88681C148.911 7.97308 148.965 8.09114 148.965 8.24097C148.965 8.3454 148.934 8.43621 148.87 8.51794C148.807 8.59967 148.73 8.65415 148.634 8.66778C148.439 8.71318 148.312 8.73134 148.24 8.73134H147.618ZM150.58 11.0833L150.122 10.1934C150.09 10.1207 150.018 10.0299 149.918 9.8937C149.814 9.76657 149.737 9.6803 149.682 9.63944C149.605 9.58495 149.478 9.52139 149.297 9.4669C149.519 9.42149 149.691 9.35793 149.818 9.2762C150.013 9.15815 150.172 8.99923 150.286 8.80853C150.399 8.61783 150.458 8.39081 150.458 8.12292C150.458 7.81417 150.385 7.56444 150.236 7.35104C150.086 7.13763 149.895 6.99688 149.65 6.91515C149.405 6.83342 149.061 6.7971 148.602 6.7971H146.638C147.119 6.45202 147.709 6.24316 148.348 6.24316C149.973 6.24316 151.297 7.56898 151.297 9.19447C151.297 9.92095 151.02 10.5748 150.589 11.0969L150.58 11.0833Z" fill="white"/>
</g>
</svg>
