<svg width="14" height="14" viewBox="0 0 14 14" fill="none" xmlns="http://www.w3.org/2000/svg" aria-hidden="true">
  <path d="M7.41662 0.000723608C7.44448 0.0510143 7.49766 0.0198992 7.55555 0.0242409C11.0426 0.282569 13.8249 3.13684 13.9993 6.62788V7.38586C13.9157 9.08236 13.2113 10.675 12.0274 11.891C10.7966 13.1559 9.14821 13.9132 7.38442 14H6.6268C3.13575 13.8256 0.281845 11.0433 0.0235172 7.55627C0.0191756 7.49838 0.0502907 7.44556 0 7.41734L0.0133867 6.59279C0.207314 3.12924 2.96028 0.29885 6.42889 0.0256881C6.49872 0.020261 6.55371 0.0473963 6.59605 0L7.41662 0.000723608ZM13.1432 7.00669C13.1432 3.61732 10.3953 0.869415 7.00597 0.869415C3.61659 0.869415 0.868691 3.61732 0.868691 7.00669C0.868691 10.3961 3.61659 13.144 7.00597 13.144C10.3953 13.144 13.1432 10.3961 13.1432 7.00669Z" fill="currentColor"/>
  <path d="M10.7036 6.19751L7.00635 9.88403L3.30908 6.19849L3.91943 5.58325L7.00635 8.66235L10.0923 5.58325L10.7036 6.19751Z" fill="currentColor"/>
</svg>
