<svg width="13" height="13" viewBox="0 0 13 13" fill="none" xmlns="http://www.w3.org/2000/svg">
<g clip-path="url(#clip0_17_10742)">
<path d="M13 6.5C13 10.0898 10.0898 13 6.5 13C2.91015 13 0 10.0898 0 6.5C0 2.91015 2.91015 0 6.5 0C10.0898 0 13 2.91015 13 6.5ZM11.7541 6.50033C11.7541 3.59774 9.40128 1.24495 6.49868 1.24495C3.59609 1.24495 1.24331 3.59807 1.24331 6.50033C1.24331 9.40259 3.59609 11.7557 6.49868 11.7557C9.40128 11.7557 11.7541 9.40292 11.7541 6.50033Z" fill="currentColor"/>
<path d="M3.66414 7.95076L2.67041 6.97347L3.83677 5.80908L5.42042 7.40161L6.52694 6.30365L7.0409 5.79166L7.61537 5.22475L7.84719 4.98865L8.11848 4.70487L9.11089 3.7312L9.42953 4.06299C9.50648 4.14323 9.62058 4.19748 9.65116 4.32869C9.77973 4.3767 9.86885 4.46153 9.91587 4.58978C10.0707 4.6539 10.1783 4.78083 10.2056 4.9413L5.44772 9.69619C5.40694 9.73697 5.28659 9.60281 5.29284 9.57716L4.59473 8.883C4.49312 8.76823 4.35304 8.69227 4.27938 8.54594C4.04821 8.36936 3.86472 8.15891 3.66414 7.95043V7.95076Z" fill="currentColor"/>
</g>
<defs>
<clipPath id="clip0_17_10742">
<rect width="13" height="13" fill="white"/>
</clipPath>
</defs>
</svg>
